<svg id="visual" viewBox="0 0 900 600" width="900" height="600" xmlns="http://www.w3.org/2000/svg" xmlns:xlink="http://www.w3.org/1999/xlink" version="1.1"><g stroke-width="1" stroke-linejoin="bevel"><path d="M447 302.1L408 291.9L458 325.9Z" fill="#114389" stroke="#114389"></path><path d="M408 291.9L403 443.6L458 325.9Z" fill="#114389" stroke="#114389"></path><path d="M346 301.1L403 443.6L408 291.9Z" fill="#01376c" stroke="#01376c"></path><path d="M536 419.6L548 347.9L458 325.9Z" fill="#00101c" stroke="#00101c"></path><path d="M458 325.9L548 347.9L447 302.1Z" fill="#001e35" stroke="#001e35"></path><path d="M447 302.1L379 204.4L408 291.9Z" fill="#1d4998" stroke="#1d4998"></path><path d="M408 291.9L379 204.4L346 301.1Z" fill="#001e35" stroke="#001e35"></path><path d="M515 199.4L379 204.4L447 302.1Z" fill="#002b50" stroke="#002b50"></path><path d="M403 443.6L449 459.6L458 325.9Z" fill="#002b50" stroke="#002b50"></path><path d="M449 459.6L536 419.6L458 325.9Z" fill="#114389" stroke="#114389"></path><path d="M403 443.6L408 482.3L449 459.6Z" fill="#073d7b" stroke="#073d7b"></path><path d="M569 527.3L631 437.6L536 419.6Z" fill="#294fa6" stroke="#294fa6"></path><path d="M282 450.6L408 482.3L403 443.6Z" fill="#294fa6" stroke="#294fa6"></path><path d="M548 347.9L515 199.4L447 302.1Z" fill="#002442" stroke="#002442"></path><path d="M284 238.1L259 354.9L346 301.1Z" fill="#021828" stroke="#021828"></path><path d="M346 301.1L282 450.6L403 443.6Z" fill="#01376c" stroke="#01376c"></path><path d="M379 204.4L284 238.1L346 301.1Z" fill="#294fa6" stroke="#294fa6"></path><path d="M259 354.9L282 450.6L346 301.1Z" fill="#001e35" stroke="#001e35"></path><path d="M548 347.9L581 207.1L515 199.4Z" fill="#00315e" stroke="#00315e"></path><path d="M659 268.1L581 207.1L548 347.9Z" fill="#021828" stroke="#021828"></path><path d="M556 127.7L433 126.4L515 199.4Z" fill="#00101c" stroke="#00101c"></path><path d="M515 199.4L433 126.4L379 204.4Z" fill="#002b50" stroke="#002b50"></path><path d="M278 122.7L246 185.4L284 238.1Z" fill="#1d4998" stroke="#1d4998"></path><path d="M631 437.6L618 387.9L536 419.6Z" fill="#073d7b" stroke="#073d7b"></path><path d="M536 419.6L618 387.9L548 347.9Z" fill="#294fa6" stroke="#294fa6"></path><path d="M433 126.4L382 124.7L379 204.4Z" fill="#00315e" stroke="#00315e"></path><path d="M451 0L417 114.7L433 126.4Z" fill="#002b50" stroke="#002b50"></path><path d="M433 126.4L417 114.7L382 124.7Z" fill="#294fa6" stroke="#294fa6"></path><path d="M278 122.7L284 238.1L379 204.4Z" fill="#073d7b" stroke="#073d7b"></path><path d="M284 238.1L189 289.1L259 354.9Z" fill="#021828" stroke="#021828"></path><path d="M282 450.6L312 533.3L408 482.3Z" fill="#021828" stroke="#021828"></path><path d="M569 527.3L536 419.6L449 459.6Z" fill="#021828" stroke="#021828"></path><path d="M246 185.4L189 289.1L284 238.1Z" fill="#002442" stroke="#002442"></path><path d="M259 354.9L187 379.6L282 450.6Z" fill="#021828" stroke="#021828"></path><path d="M282 450.6L250 546.3L312 533.3Z" fill="#114389" stroke="#114389"></path><path d="M189 289.1L187 379.6L259 354.9Z" fill="#294fa6" stroke="#294fa6"></path><path d="M569 527.3L449 459.6L458 600Z" fill="#002b50" stroke="#002b50"></path><path d="M659 268.1L589 156.4L581 207.1Z" fill="#1d4998" stroke="#1d4998"></path><path d="M659 268.1L548 347.9L618 387.9Z" fill="#01376c" stroke="#01376c"></path><path d="M581 207.1L589 156.4L515 199.4Z" fill="#1d4998" stroke="#1d4998"></path><path d="M589 156.4L556 127.7L515 199.4Z" fill="#01376c" stroke="#01376c"></path><path d="M697 375.9L659 268.1L618 387.9Z" fill="#00101c" stroke="#00101c"></path><path d="M458 600L449 459.6L408 482.3Z" fill="#114389" stroke="#114389"></path><path d="M382 124.7L278 122.7L379 204.4Z" fill="#1d4998" stroke="#1d4998"></path><path d="M139 151.4L153 293.9L189 289.1Z" fill="#073d7b" stroke="#073d7b"></path><path d="M317 0L278 122.7L382 124.7Z" fill="#01376c" stroke="#01376c"></path><path d="M139 151.4L189 289.1L246 185.4Z" fill="#073d7b" stroke="#073d7b"></path><path d="M189 289.1L153 293.9L187 379.6Z" fill="#001e35" stroke="#001e35"></path><path d="M329 600L458 600L408 482.3Z" fill="#294fa6" stroke="#294fa6"></path><path d="M123 493.3L250 546.3L282 450.6Z" fill="#00101c" stroke="#00101c"></path><path d="M312 533.3L329 600L408 482.3Z" fill="#114389" stroke="#114389"></path><path d="M264 600L250 546.3L174 600Z" fill="#294fa6" stroke="#294fa6"></path><path d="M615 600L632 508.3L569 527.3Z" fill="#01376c" stroke="#01376c"></path><path d="M569 527.3L632 508.3L631 437.6Z" fill="#294fa6" stroke="#294fa6"></path><path d="M631 437.6L697 375.9L618 387.9Z" fill="#00101c" stroke="#00101c"></path><path d="M713 395.6L697 375.9L631 437.6Z" fill="#002b50" stroke="#002b50"></path><path d="M264 600L329 600L312 533.3Z" fill="#1d4998" stroke="#1d4998"></path><path d="M458 600L532 600L569 527.3Z" fill="#002442" stroke="#002442"></path><path d="M768 476.3L713 395.6L631 437.6Z" fill="#1d4998" stroke="#1d4998"></path><path d="M697 375.9L759 241.1L659 268.1Z" fill="#294fa6" stroke="#294fa6"></path><path d="M278 122.7L192 130.7L246 185.4Z" fill="#294fa6" stroke="#294fa6"></path><path d="M123 493.3L282 450.6L187 379.6Z" fill="#073d7b" stroke="#073d7b"></path><path d="M250 546.3L264 600L312 533.3Z" fill="#00101c" stroke="#00101c"></path><path d="M52 277.1L98 352.9L153 293.9Z" fill="#002b50" stroke="#002b50"></path><path d="M153 293.9L98 352.9L187 379.6Z" fill="#01376c" stroke="#01376c"></path><path d="M556 127.7L451 0L433 126.4Z" fill="#00101c" stroke="#00101c"></path><path d="M417 114.7L317 0L382 124.7Z" fill="#00101c" stroke="#00101c"></path><path d="M278 122.7L184 0L192 130.7Z" fill="#114389" stroke="#114389"></path><path d="M548 0L451 0L556 127.7Z" fill="#001e35" stroke="#001e35"></path><path d="M184 0L139 151.4L192 130.7Z" fill="#00315e" stroke="#00315e"></path><path d="M192 130.7L139 151.4L246 185.4Z" fill="#021828" stroke="#021828"></path><path d="M532 600L615 600L569 527.3Z" fill="#294fa6" stroke="#294fa6"></path><path d="M632 508.3L768 476.3L631 437.6Z" fill="#00315e" stroke="#00315e"></path><path d="M76 381.6L123 493.3L187 379.6Z" fill="#1d4998" stroke="#1d4998"></path><path d="M451 0L317 0L417 114.7Z" fill="#073d7b" stroke="#073d7b"></path><path d="M0 334.9L76 381.6L98 352.9Z" fill="#00315e" stroke="#00315e"></path><path d="M98 352.9L76 381.6L187 379.6Z" fill="#294fa6" stroke="#294fa6"></path><path d="M317 0L308 0L278 122.7Z" fill="#294fa6" stroke="#294fa6"></path><path d="M756 165.4L663 80.7L589 156.4Z" fill="#002442" stroke="#002442"></path><path d="M589 156.4L663 80.7L556 127.7Z" fill="#021828" stroke="#021828"></path><path d="M756 165.4L589 156.4L659 268.1Z" fill="#021828" stroke="#021828"></path><path d="M842 339.9L759 241.1L697 375.9Z" fill="#002b50" stroke="#002b50"></path><path d="M607 0L548 0L556 127.7Z" fill="#294fa6" stroke="#294fa6"></path><path d="M139 151.4L82 206.4L153 293.9Z" fill="#002b50" stroke="#002b50"></path><path d="M123 493.3L130 549.3L250 546.3Z" fill="#1d4998" stroke="#1d4998"></path><path d="M96 600L130 549.3L0 548.3Z" fill="#294fa6" stroke="#294fa6"></path><path d="M130 549.3L174 600L250 546.3Z" fill="#002b50" stroke="#002b50"></path><path d="M82 206.4L52 277.1L153 293.9Z" fill="#073d7b" stroke="#073d7b"></path><path d="M756 165.4L674 56.7L663 80.7Z" fill="#002442" stroke="#002442"></path><path d="M663 80.7L607 0L556 127.7Z" fill="#002b50" stroke="#002b50"></path><path d="M759 241.1L756 165.4L659 268.1Z" fill="#00101c" stroke="#00101c"></path><path d="M708 600L768 476.3L632 508.3Z" fill="#00101c" stroke="#00101c"></path><path d="M713 395.6L842 339.9L697 375.9Z" fill="#00101c" stroke="#00101c"></path><path d="M674 56.7L607 0L663 80.7Z" fill="#001e35" stroke="#001e35"></path><path d="M615 600L708 600L632 508.3Z" fill="#01376c" stroke="#01376c"></path><path d="M308 0L184 0L278 122.7Z" fill="#294fa6" stroke="#294fa6"></path><path d="M0 198.4L0 209.1L82 206.4Z" fill="#114389" stroke="#114389"></path><path d="M52 277.1L0 334.9L98 352.9Z" fill="#073d7b" stroke="#073d7b"></path><path d="M76 381.6L0 470.6L123 493.3Z" fill="#00315e" stroke="#00315e"></path><path d="M0 209.1L0 334.9L52 277.1Z" fill="#00101c" stroke="#00101c"></path><path d="M0 209.1L52 277.1L82 206.4Z" fill="#00315e" stroke="#00315e"></path><path d="M0 548.3L130 549.3L123 493.3Z" fill="#294fa6" stroke="#294fa6"></path><path d="M130 549.3L96 600L174 600Z" fill="#002442" stroke="#002442"></path><path d="M820 472.6L713 395.6L768 476.3Z" fill="#001e35" stroke="#001e35"></path><path d="M820 472.6L842 339.9L713 395.6Z" fill="#114389" stroke="#114389"></path><path d="M759 241.1L821 196.4L756 165.4Z" fill="#294fa6" stroke="#294fa6"></path><path d="M852 303.1L821 196.4L759 241.1Z" fill="#002b50" stroke="#002b50"></path><path d="M818 126.7L718 0L674 56.7Z" fill="#294fa6" stroke="#294fa6"></path><path d="M813 548.3L820 472.6L768 476.3Z" fill="#01376c" stroke="#01376c"></path><path d="M842 339.9L852 303.1L759 241.1Z" fill="#002442" stroke="#002442"></path><path d="M900 314.9L852 303.1L842 339.9Z" fill="#1d4998" stroke="#1d4998"></path><path d="M0 198.4L82 206.4L0 100.7Z" fill="#01376c" stroke="#01376c"></path><path d="M45 67.7L82 206.4L139 151.4Z" fill="#002442" stroke="#002442"></path><path d="M0 334.9L0 470.6L76 381.6Z" fill="#01376c" stroke="#01376c"></path><path d="M818 126.7L674 56.7L756 165.4Z" fill="#00315e" stroke="#00315e"></path><path d="M674 56.7L718 0L607 0Z" fill="#00315e" stroke="#00315e"></path><path d="M900 161.4L818 126.7L821 196.4Z" fill="#114389" stroke="#114389"></path><path d="M821 196.4L818 126.7L756 165.4Z" fill="#00315e" stroke="#00315e"></path><path d="M708 600L813 548.3L768 476.3Z" fill="#073d7b" stroke="#073d7b"></path><path d="M900 449.6L900 314.9L842 339.9Z" fill="#002b50" stroke="#002b50"></path><path d="M184 0L45 67.7L139 151.4Z" fill="#01376c" stroke="#01376c"></path><path d="M0 470.6L0 548.3L123 493.3Z" fill="#1d4998" stroke="#1d4998"></path><path d="M184 0L75 0L45 67.7Z" fill="#021828" stroke="#021828"></path><path d="M45 67.7L0 100.7L82 206.4Z" fill="#001e35" stroke="#001e35"></path><path d="M0 0L0 100.7L45 67.7Z" fill="#00315e" stroke="#00315e"></path><path d="M900 449.6L842 339.9L820 472.6Z" fill="#01376c" stroke="#01376c"></path><path d="M852 303.1L900 241.1L821 196.4Z" fill="#00315e" stroke="#00315e"></path><path d="M900 314.9L900 241.1L852 303.1Z" fill="#01376c" stroke="#01376c"></path><path d="M900 516.3L900 449.6L820 472.6Z" fill="#00101c" stroke="#00101c"></path><path d="M0 548.3L0 600L96 600Z" fill="#001e35" stroke="#001e35"></path><path d="M708 600L839 600L813 548.3Z" fill="#114389" stroke="#114389"></path><path d="M813 548.3L900 516.3L820 472.6Z" fill="#002442" stroke="#002442"></path><path d="M818 126.7L799 0L718 0Z" fill="#073d7b" stroke="#073d7b"></path><path d="M900 0L799 0L818 126.7Z" fill="#001e35" stroke="#001e35"></path><path d="M900 241.1L900 161.4L821 196.4Z" fill="#002442" stroke="#002442"></path><path d="M839 600L900 516.3L813 548.3Z" fill="#001e35" stroke="#001e35"></path><path d="M900 161.4L900 133.7L818 126.7Z" fill="#002442" stroke="#002442"></path><path d="M75 0L0 0L45 67.7Z" fill="#002b50" stroke="#002b50"></path><path d="M839 600L900 600L900 516.3Z" fill="#00101c" stroke="#00101c"></path><path d="M900 133.7L900 0L818 126.7Z" fill="#1d4998" stroke="#1d4998"></path></g></svg>